<?xml version="1.0" encoding="UTF-8" standalone="no" ?>
<!DOCTYPE svg PUBLIC "-//W3C//DTD SVG 1.1//EN" "http://www.w3.org/Graphics/SVG/1.1/DTD/svg11.dtd">
<svg xmlns="http://www.w3.org/2000/svg" xmlns:xlink="http://www.w3.org/1999/xlink" version="1.1" width="1080" height="1080" viewBox="0 0 1080 1080" xml:space="preserve">
<desc>Created with Fabric.js 5.2.4</desc>
<defs>
</defs>
<g transform="matrix(1 0 0 1 540 540)" id="aeb77007-8cba-4d4c-9df4-6ae7b7e67004"  >
<rect style="stroke: none; stroke-width: 1; stroke-dasharray: none; stroke-linecap: butt; stroke-dashoffset: 0; stroke-linejoin: miter; stroke-miterlimit: 4; fill: rgb(255,255,255); fill-rule: nonzero; opacity: 1; visibility: hidden;" vector-effect="non-scaling-stroke"  x="-540" y="-540" rx="0" ry="0" width="1080" height="1080" />
</g>
<g transform="matrix(1 0 0 1 540 540)" id="f920a46c-92de-41ac-84e6-dced37b8acd3"  >
</g>
<g transform="matrix(2.76 0 0 2.76 538.22 548.28)"  >
<path style="stroke: none; stroke-width: 1; stroke-dasharray: none; stroke-linecap: butt; stroke-dashoffset: 0; stroke-linejoin: miter; stroke-miterlimit: 4; fill: rgb(226,7,20); fill-rule: evenodd; opacity: 1;" vector-effect="non-scaling-stroke"  transform=" translate(-14.97, -25.22)" d="M 18.7087687 23.9417512 C 18.4799489 23.005296 18.2586231 22.0728794 18.0597797 21.1480353 C 17.6940677 19.4533291 17.3992998 17.7762919 17.2624076 16.1007691 C 17.2214398 15.6322891 17.2044532 15.1829926 17.1854681 14.7357153 C 17.1514949 14.0289567 17.1440008 13.342896 17.1594886 12.6906588 C 17.1819709 11.5346036 17.2624076 10.4598257 17.3823131 9.49510014 C 17.5456845 8.22697324 17.8099764 7.15774841 18.0053226 6.23896221 C 17.8064792 6.3979829 17.60214 6.55145048 17.4032966 6.69936497 C 17.177974 7.37633876 16.9006924 8.32541462 16.6468922 9.51226428 C 16.4765264 10.3083774 16.313155 11.2291829 16.1837569 12.2413622 C 15.2494925 11.8395194 14.3362116 11.3599332 13.5053659 10.7914974 L 13.5238513 12.1010201 C 14.3157278 12.7623443 15.1520692 13.3615746 16.0148899 13.9002257 C 15.8949843 15.3914863 15.8595122 17.0518643 15.9624312 18.8697484 C 15.9979032 19.436165 16.0468647 20.001067 16.0993234 20.5659691 C 14.2967427 20.0616463 12.3982376 19.2963277 10.7815106 18.1932794 L 10.8079898 19.5083553 C 12.5241385 20.952667 14.5030803 22.1127608 16.3826003 22.914427 C 16.6548859 24.806016 16.9886231 26.6844794 17.299878 28.583136 C 14.8373171 28.2499498 11.5244256 27.3478229 8.94695515 25.5814312 L 8.96793863 26.8970119 C 11.6967899 29.1884243 15.0771282 30.7720684 17.7090559 31.309205 C 18.251129 35.2630146 18.4744532 39.4293567 17.5192054 44.2055305 L 20.5842919 42.3876463 C 21.7773525 35.6158891 20.1061684 29.6508463 18.7087687 23.9417512" stroke-linecap="round" />
</g>
<g transform="matrix(2.76 0 0 2.76 540 529.81)"  >
<path style="stroke: none; stroke-width: 1; stroke-dasharray: none; stroke-linecap: butt; stroke-dashoffset: 0; stroke-linejoin: miter; stroke-miterlimit: 4; fill: rgb(226,7,20); fill-rule: evenodd; opacity: 1;" vector-effect="non-scaling-stroke"  transform=" translate(-14.92, -18.54)" d="M 14.6308796 36.8286364 C 10.681989 36.7559412 3.20737451 32.8440323 0.65238631 27.3686723 C 0.65238631 27.3686723 0.451544453 26.9340157 0.372606609 26.7638888 C 0.483519276 26.6068874 0.751808025 26.221704 0.751808025 26.221704 C 1.65409756 24.9369178 2.72875138 22.7873619 2.72875138 19.8305868 C 2.72875138 18.9360323 2.57487254 17.8536819 2.25612352 16.5517316 C 2.25612352 16.5517316 2.12322817 15.999955 2.06477419 15.7722778 C 2.26012038 15.6435468 2.72875138 15.3270199 2.72875138 15.3270199 C 4.40193391 14.1957012 7.28516365 11.4888157 7.70733124 5.98266124 C 7.70733124 5.98266124 7.75629268 5.33446262 7.77477813 5.07094262 C 8.0375712 5.03711917 8.66757514 4.94019228 8.66757514 4.94019228 C 10.3877207 4.67515779 13.6986137 3.81796055 16.5758482 1.00708055 C 16.5758482 1.00708055 17.1124256 0.478526069 17.3527364 0.247315034 C 17.5870519 0.478526069 18.1256279 1.00708055 18.1256279 1.00708055 C 21.0028623 3.81796055 24.3137553 4.67515779 26.0304036 4.94019228 C 26.0304036 4.94019228 26.6679017 5.03711917 26.9246994 5.07094262 C 26.9246994 5.33446262 26.9301951 5.98669986 26.9301951 5.98669986 C 26.9641684 10.1126557 28.766749 11.7977702 29.4701951 12.2965399 C 29.2393769 12.500995 28.9695893 12.7342254 28.8381928 12.8457923 C 27.0990622 12.1506447 25.0321896 10.5887081 24.7584052 7.04986676 C 22.9123588 6.65004331 20.1215563 5.66815366 17.5066153 3.48275503 L 17.3562337 3.29142538 L 17.2028544 3.48275503 C 14.5874138 5.66815366 11.8415759 6.61016193 10.0015248 7.01200469 L 9.84015185 7.04784745 L 9.81167427 7.21645986 C 9.12921164 12.2718033 6.66814949 15.1563881 4.72268135 16.6860157 L 4.60277577 16.7829426 L 4.63275216 16.9247992 C 4.87656019 18.1358806 4.99496696 19.0647633 4.99496696 19.8305868 C 4.99496696 22.330493 4.34597797 24.6638061 3.07198112 26.7679274 L 2.99704013 26.8850474 L 3.07198112 27.0163026 C 2.88812589 30.968093 11.5563006 36.0249509 14.5559386 36.1425757 L 14.6308796 36.8286364 Z" stroke-linecap="round" />
</g>
</svg>