<?xml version="1.0" encoding="UTF-8"?>
<svg version="1.1" viewBox="0 0 1024 1024" width="1280" height="1280" xmlns="http://www.w3.org/2000/svg">
<path transform="translate(0)" d="m0 0h1024v1024h-1024z" fill="#FBFEFD"/>
<path transform="translate(491,156)" d="m0 0h25l24 2 26 4 10 3 5 5 1 7-3 5-5 2-11-1-27-4-30-2h-12l-28 2-26 4-30 7-27 9-26 11-20 10-20 12-19 13-16 13-14 12-23 23-9 11-13 16-13 19-12 20-12 23-10 25-8 24-6 25-4 26-2 26v28l2 27 4 26 7 28 10 30 11 24 1-216 11-11 3-4h2l2-4 22-22 7-8 21-21 4 1 18 18 7 8 16 16 7 8 15 15 2 3 1 233 3 3 7-1 1-3 1-175 14-15 13-13 7-8 9-9 7-8 13-13 7-8 9-9 7-8 9-9h1l1 276 3 3h6l3-4 1-121 15-16 9-9 7 6 27 27 3 6v110h25l1-27-6 3h-5l-2-4 4-7 7-6 1-5-5 3h-5l-1-4 7-8 4-5-3-1-3 2-5-1 1-5 6-7 3-2 1-5-6 3-4-1-1-4 7-8 8-8 4 2 12 12 1 5-2 2-6-1-4-2 2 6 4 2 6 8-1 5-6-1-5-3 3 6 5 4 4 6-1 5-6-1-3-2 1 4 7 7 3 6-1 3-4 1-7-3v26h48l1-29-8 4-4-3 2-5 7-8h2l1-6-5 3h-5l-1-5 10-10 1-4-5 3h-5l-1-1v-5l8-8h2l1-6-5 3h-5l-1-6 15-15 8 7 8 10-1 4-3 1-6-3 1 4 7 7 2 3-1 5-6-1-4-1 3 5 7 7 1 5-1 1h-6l-3-2 1 4 7 7 3 5-2 5-5-1-5-2 1 28 54 1v-12l-5-2-5-5-3-5-1-10 3-8 6-7 7-3h11l8 5 5 6 2 7-1 9-5 8-9 6v10h34v-80l-13-17-6-8-8 1-10 2h-14l-14-4-13-7-11-10-9-12-10-18-2-6 9-4 15-3h23l15 4 13 7 6 5 8 10 5 12 1 8-19-9-15-6-8-2 17 10 17 9 12 6 9 8 3 3-1-76-12-5-8-6-9-9-8-14-4-14v-25l4-16 5-11 6-11 7-10 5 1 11 8 10 9 8 8 7 10 6 13 4 16v14l-3 16-5 12-7 10h-2v181l33 1v-10l-6-2-5-6-2-4v-12l4-6 6-5 7-2 8 1 8 5 4 6 1 3v8l-4 8-6 5-2 1v9h37l8-14 10-21 9-24 8-27 6-31 2-16 1-17 2-5 4-4 6-1 6 3 2 3v21l-3 24-5 25-8 27-9 25-12 26-10 18-7 10-2 1h-91v19h78l-2 4-10 13-13 15-28 28-11 9-16 13-21 14-24 14-16 8-20 9-25 9-25 7-29 6-23 3-12 1h-42l-29-3-28-5-34-9-27-10-26-12-22-12-30-20-13-10-13-11-10-9-18-18v-2h170l1 2-8 5-7 8-4 10v14l4 10 8 9 12 6 5 1h162l4-3v-7l-3-3-2-1-106-1-8-4-5-8v-11l4-7 5-4 5-2 13-1h138l41-1 12-5 8-7 5-10 1-4v-11l-1-6 5-1h16l-1-19h-516l-5-6-9-15-10-19-8-19-9-25-7-26-5-28-2-16-1-14v-43l3-29 6-31 5-19 11-32 9-20 10-20 9-15 10-15 12-17 14-17 18-20 10-10 8-7 14-12 12-9 20-14 19-11 21-11 23-10 19-7 31-9 24-5 21-3z" fill="#1B2932"/>
<path transform="translate(678,182)" d="m0 0 18 1 14 4 12 6 9 7 5 4 10 13 7 14 3 9 2 15-1 15-4 14-8 16-10 12-10 8-16 8-16 4h-23l-15-4-16-8-13-12-9-12-7-16-2-9-1-16 2-15 4-12 5-10 9-12 11-10 14-8 12-4z" fill="#1B2932"/>
<path transform="translate(204,728)" d="m0 0h408l4 2 3 5-1 6-4 5-2 1-393 1-10-11-5-7z" fill="#1B2932"/>
<path transform="translate(804,496)" d="m0 0h12v24l-3 15-5 13-6 11-11 12-11 7-14 5-4 1h-19l-4-2 8-13 9-12 9-11 5-7-14 9-12 11-11 11v-18l4-13 7-12 10-11 10-7 15-7 13-4z" fill="#1B2932"/>
<path transform="translate(819,287)" d="m0 0 3 3 3 12 2 16-1 16-4 13-7 11-9 9-14 7h-7l-4-5-3-9-1-6v-18l4-14 6-10 9-10 10-8z" fill="#1B2932"/>
<path transform="translate(609,423)" d="m0 0 8 1 12 5 10 9 5 10 2 25 4 13 6 12 7 9-1 2-16-4-12-7-12-11-9-13-6-13-2-10v-16l3-11z" fill="#1B2932"/>
<path transform="translate(565,337)" d="m0 0 5 1 10 8 9 9 7 11 4 13v15l-5 15-3 5-3 2h-7l-9-6-8-8-5-8-3-9-1-7v-12l3-14 5-13z" fill="#1B2932"/>
<path transform="translate(538,287)" d="m0 0 2 1-8 16-3 13v20l2 17v9l-2 11-5 10-4 5-7 5-13 4-49 1 1-7 4-6 6-4 6-2 21-1 12-3 8-6 4-6 3-12 2-29 4-15 5-10 9-10z" fill="#1B2932"/>
<path transform="translate(344,384)" d="m0 0 4 1 9 8 8 11 4 8 2 7 1 10-2 12-7 14-7 7-6-1-7-6-7-10-4-10-1-4v-17l3-12 9-17z" fill="#1B2932"/>
<path transform="translate(451,414)" d="m0 0h18v112l-18 18z" fill="#1B2932"/>
<path transform="translate(330,278)" d="m0 0 5 2 12 11 6 8 5 10 2 8v11l-4 13-5 8-4 4-6-1-8-6-8-10-5-13v-21l4-13 5-10z" fill="#1B2932"/>
<path transform="translate(782,445)" d="m0 0h22l7 2-3 9-6 12-9 10-10 7-13 4h-12l-10-3 1-9 4-11 6-8 9-8 10-4z" fill="#1B2932"/>
<path transform="translate(530,422)" d="m0 0h21l13 4 10 8 6 8 4 9v5l-8 5-8 2-13-1-9-4-9-7-7-9-8-15v-3z" fill="#1B2932"/>
<path transform="translate(822,383)" d="m0 0h12l12 2 2 1-2 6-7 12-9 10-8 5-7 3-5 1h-10l-10-3-4-2 3-11 5-9 8-8 10-5z" fill="#1B2932"/>
<path transform="translate(749,337)" d="m0 0 4 1 5 11 3 13v10l-4 11-6 8-8 7-4 2-5-1-4-6-3-9-1-11 2-11 6-10 9-10z" fill="#1B2932"/>
<path transform="translate(392,341)" d="m0 0h10l12 2 2 1-2 5-8 14-7 8-10 6-7 2h-16l-8-3-1-5 4-11 7-9 9-6 9-3z" fill="#1B2932"/>
<path transform="translate(625,354)" d="m0 0 10 5 9 8 6 10 2 5v16l-5 12-2 2-7-1-8-6-7-8-4-13v-9l3-14z" fill="#1B2932"/>
<path transform="translate(574,480)" d="m0 0h12l11 4 7 6 7 10v2l-10 6-10 3h-10l-12-4-11-8-7-8 1-3 11-5z" fill="#1B2932"/>
<path transform="translate(406,226)" d="m0 0 4 2 2 4 1 10 11 2 5 4-1 3-7 3h-8l-1 11-3 5h-4l-3-8-1-7-11-2-5-3 2-4 8-3 6-1 2-11z" fill="#1B2932"/>
<path transform="translate(500,244)" d="m0 0 4 3 2 8v5h7l8 4-1 4-7 3-6 1-3 12-2 3-4-2-2-4-1-10h-8l-7-3-1-3 4-3 6-2h6l1-10 2-5z" fill="#1B2932"/>
<path transform="translate(470,663)" d="m0 0h22v21l-1 6h-21z" fill="#FBFEFD"/>
<path transform="translate(771,401)" d="m0 0 3 1v10l-2 11-5 8-7 6h-5l-2-2v-15l5-9 5-5z" fill="#1B2932"/>
<path transform="translate(704,444)" d="m0 0 2 1 8 20 4 20 1 11-1 1h-8l-1-5-1-20-4-25z" fill="#FBFEFD"/>
<path transform="translate(264,470)" d="m0 0h16l1 5v10l-1 2h-15l-1-1z" fill="#FBFEFD"/>
<path transform="translate(242,470)" d="m0 0h15l1 16-1 1h-15l-1-1v-15z" fill="#FBFEFD"/>
<path transform="translate(463,324)" d="m0 0 4 2 1 7 7 1 1 5-8 2-1 7-5 1-3-8-6-2-1-3 5-3h3l1-7z" fill="#1B2932"/>
<path transform="translate(278,309)" d="m0 0 4 1 1 2v6h6l2 2-1 4-7 1-1 7-1 2-5-1-2-7-7-3 1-4 7-1 1-7z" fill="#1B2932"/>
<path transform="translate(365,618)" d="m0 0h14v16l-1 1h-12l-3-1v-15z" fill="#FBFEFD"/>
<path transform="translate(393,642)" d="m0 0h9l1 1v16h-16v-16z" fill="#FBFEFD"/>
<path transform="translate(242,611)" d="m0 0h16v16h-16l-1-3v-11z" fill="#FBFEFD"/>
<path transform="translate(248,586)" d="m0 0h9l1 1v16h-16v-16z" fill="#FBFEFD"/>
<path transform="translate(371,642)" d="m0 0h8v17h-16v-16z" fill="#FBFEFD"/>
<path transform="translate(272,586)" d="m0 0h8l1 1v15l-1 1h-15v-16z" fill="#FBFEFD"/>
<path transform="translate(388,618)" d="m0 0h14l1 1v15l-1 1-15-1v-15z" fill="#FBFEFD"/>
<path transform="translate(264,495)" d="m0 0h16v16h-15l-1-1z" fill="#FBFEFD"/>
<path transform="translate(265,611)" d="m0 0h16v14l-1 2h-15z" fill="#FBFEFD"/>
<path transform="translate(242,495)" d="m0 0h15v16h-15l-1-4v-11z" fill="#FBFEFD"/>
<path transform="translate(219,532)" d="m0 0h17v12l-2 1-15-1z" fill="#FBFEFD"/>
<path transform="translate(219,553)" d="m0 0h16l1 1v10l-1 1h-15l-1-2z" fill="#FBFEFD"/>
<path transform="translate(368,578)" d="m0 0h5l1 1v10l-1 3h-11l-1-1v-12z" fill="#FBFEFD"/>
<path transform="translate(402,555)" d="m0 0h13v13h-12l-1-1z" fill="#FBFEFD"/>
<path transform="translate(402,532)" d="m0 0h13v13h-12l-1-1z" fill="#FBFEFD"/>
<path transform="translate(290,531)" d="m0 0h14v12h-14z" fill="#FBFEFD"/>
<path transform="translate(290,551)" d="m0 0h14v12h-13l-1-1z" fill="#FBFEFD"/>
<path transform="translate(361,532)" d="m0 0h13v12l-1 1h-11l-1-1z" fill="#FBFEFD"/>
<path transform="translate(384,531)" d="m0 0h10v14h-12v-13z" fill="#FBFEFD"/>
<path transform="translate(362,555)" d="m0 0h12v11l-1 2h-11l-1-1v-11z" fill="#FBFEFD"/>
<path transform="translate(382,579)" d="m0 0h12v13h-12z" fill="#FBFEFD"/>
<path transform="translate(382,555)" d="m0 0h12v13h-12z" fill="#FBFEFD"/>
<path transform="translate(509,472)" d="m0 0 6 5 2 4-6 7-5-2-4-4 2-5z" fill="#1B2932"/>
<path transform="translate(469,630)" d="m0 0h10v12h-9l-1-1z" fill="#FBFEFD"/>
<path transform="translate(469,609)" d="m0 0h10v10l-2 1h-7l-1-1z" fill="#FBFEFD"/>
<path transform="translate(487,630)" d="m0 0h9v11h-9z" fill="#FBFEFD"/>
<path transform="translate(487,609)" d="m0 0h9v11h-8l-1-1z" fill="#FBFEFD"/>
</svg>
